<svg xmlns="http://www.w3.org/2000/svg" xmlns:xlink="http://www.w3.org/1999/xlink" version="1.1" x="0px" y="0px" viewBox="0 0 100 125" style="enable-background:new 0 0 100 100;" xml:space="preserve"><path d="M66.45,46.13H53.87V33.55c0-2.14-1.73-3.87-3.87-3.87s-3.87,1.73-3.87,3.87v12.58H33.55c-2.14,0-3.87,1.73-3.87,3.87  s1.73,3.87,3.87,3.87h12.58v12.58c0,2.14,1.73,3.87,3.87,3.87s3.87-1.73,3.87-3.87V53.87h12.58c2.14,0,3.87-1.73,3.87-3.87  S68.58,46.13,66.45,46.13z"/><path d="M50,10c-22.06,0-40,17.94-40,40s17.94,40,40,40s40-17.94,40-40S72.06,10,50,10z M50,82.27c-17.79,0-32.27-14.47-32.27-32.27  c0-17.79,14.47-32.27,32.27-32.27S82.27,32.21,82.27,50C82.27,67.79,67.79,82.27,50,82.27z"/><text x="0" y="115" fill="#000000" font-size="5px" font-weight="bold" font-family="'Helvetica Neue', Helvetica, Arial-Unicode, Arial, Sans-serif">Created by NAPISAH</text><text x="0" y="120" fill="#000000" font-size="5px" font-weight="bold" font-family="'Helvetica Neue', Helvetica, Arial-Unicode, Arial, Sans-serif">from the Noun Project</text></svg>